<svg width="162" height="48" viewBox="0 0 162 48" fill="none" xmlns="http://www.w3.org/2000/svg">
<path fill-rule="evenodd" clip-rule="evenodd" d="M49.8134 10.7616C49.8134 4.81812 54.6315 0 60.5749 0H101.425C107.368 0 112.187 4.81812 112.187 10.7616C112.187 16.705 107.368 21.5231 101.425 21.5231H85.4533C84.0854 21.5231 82.9765 22.6321 82.9765 24C82.9765 25.3679 84.0854 26.4769 85.4533 26.4769H150.621C156.564 26.4769 161.382 31.295 161.382 37.2384C161.382 43.1819 156.564 48 150.621 48H11.3792C5.43579 48 0.617676 43.1819 0.617676 37.2384C0.617676 31.295 5.43579 26.4769 11.3792 26.4769H76.5464C77.9143 26.4769 79.0232 25.3679 79.0232 24C79.0232 22.6321 77.9143 21.5231 76.5464 21.5231H60.5749C54.6315 21.5231 49.8134 16.705 49.8134 10.7616ZM64.3692 41.8854C63.615 41.8854 63.0252 41.7794 62.6011 41.5647C62.1757 41.3513 61.8788 41.0319 61.7092 40.6038C61.5395 40.1771 61.4547 39.6496 61.4547 39.0187V35.4495C61.4547 34.425 61.6827 33.6696 62.1399 33.1845C62.5958 32.6994 63.3394 32.4556 64.3705 32.4556H69.1643C69.8972 32.4556 70.4565 32.4953 70.8448 32.5762C71.2318 32.6557 71.4267 32.7392 71.4267 32.824L71.1086 34.152C70.9283 34.1202 70.3942 34.0857 69.5076 34.0473C68.6209 34.0102 67.334 33.9916 65.6455 33.9916H64.833C63.9835 33.9916 63.5594 34.3707 63.5594 35.1288V39.2109C63.5594 39.574 63.6521 39.8537 63.8377 40.0512C64.0232 40.2486 64.3559 40.3467 64.833 40.3467H65.4864C67.2491 40.3467 68.6169 40.3282 69.5884 40.291C70.5599 40.2539 71.1629 40.2142 71.3962 40.1704L72.0496 41.2267C72.0496 41.2798 71.9621 41.3606 71.7872 41.4666C71.6122 41.574 71.2901 41.6694 70.8236 41.7542C70.3558 41.8391 69.6825 41.8828 68.8011 41.8828H64.3731L64.3692 41.8854ZM28.8499 41.8854V33.7543L28.6909 32.4581H35.7471C36.427 32.4581 36.9598 32.5496 37.3481 32.7298C37.7351 32.9114 38.0227 33.1486 38.2082 33.4415C38.3938 33.7358 38.5131 34.0472 38.5661 34.3786C38.6191 34.7099 38.6456 35.024 38.6456 35.3235V36.2685C38.6456 36.5137 38.6085 36.7894 38.5343 37.0929C38.4601 37.3964 38.3222 37.6906 38.1208 37.9729C37.9193 38.2552 37.6264 38.4911 37.2447 38.6767C36.863 38.8636 36.3633 38.9563 35.7471 38.9563H34.1222C33.4529 38.9563 32.8286 38.9404 32.2508 38.9086C31.6716 38.8768 31.2395 38.8503 30.9533 38.8291V41.8867H28.8513L28.8499 41.8854ZM30.9519 37.4189H35.2845C35.763 37.4189 36.0917 37.301 36.2719 37.0664C36.4521 36.8318 36.5423 36.5495 36.5423 36.2182V35.2096C36.5423 34.8676 36.4521 34.58 36.2719 34.3454C36.0917 34.1108 35.7669 33.9929 35.3004 33.9929H30.9519V37.4189ZM13.6534 41.8853C12.9311 41.8853 12.401 41.8535 12.0603 41.7899C11.7211 41.7263 11.5501 41.6507 11.5501 41.5659L12.1876 40.173C12.4314 40.2154 13.0398 40.2551 14.0113 40.2936C14.9827 40.3307 16.3187 40.3492 18.0178 40.3492H18.32C18.7759 40.3492 19.1006 40.2671 19.2915 40.1014C19.4823 39.9357 19.5777 39.6561 19.5777 39.2611V38.9404C19.5777 38.5666 19.5009 38.3002 19.3471 38.1399C19.1934 37.9795 18.8501 37.9 18.32 37.9H14.6249C13.5527 37.9 12.7721 37.6998 12.283 37.2996C11.7939 36.8993 11.5501 36.2459 11.5501 35.3381V35.0823C11.5501 34.6131 11.6376 34.181 11.8125 33.7861C11.9874 33.3911 12.287 33.0744 12.7124 32.8331C13.1365 32.5933 13.721 32.4727 14.4645 32.4727H18.7971C19.5194 32.4727 20.1026 32.5098 20.5492 32.5853C20.9959 32.6595 21.2185 32.7404 21.2185 32.8252L20.9004 34.1704C20.6248 34.1386 19.9979 34.1042 19.0211 34.0657C18.0443 34.0286 16.7322 34.0101 15.0861 34.0101L14.9112 33.9942C14.4221 33.9942 14.0934 34.0936 13.9238 34.2897C13.7541 34.4872 13.6627 34.735 13.6534 35.0346V35.3063C13.6534 35.6588 13.7515 35.9225 13.9476 36.0988C14.1438 36.2751 14.4712 36.3626 14.9271 36.3626H18.4631C19.143 36.3626 19.7222 36.4315 20.1993 36.5706C20.6778 36.7098 21.0436 36.9629 21.298 37.3314C21.5525 37.6998 21.6798 38.2419 21.6798 38.9563V39.2121C21.6798 40.0126 21.4756 40.658 21.0661 41.1484C20.6566 41.6388 19.9488 41.8853 18.9402 41.8853H13.6534ZM48.09 32.4727L43.4234 41.8853H45.7481L46.7832 39.8522H52.4862L53.4259 41.8853H55.8791L51.2284 32.4727H48.09ZM51.8977 38.2843H47.3597L49.5572 33.9146H49.7162L51.8977 38.2843ZM78.4182 32.4726V41.8853H87.1151C87.8162 41.8853 88.3106 41.8667 88.5969 41.8296C88.8831 41.7912 89.0263 41.7514 89.0263 41.709L88.3888 40.3479H80.5202V37.8032H86.4776V36.2181H80.5202V34.0087H88.3252V32.4726H78.4182ZM98.5994 41.8854L98.5835 33.9942H94.4417V32.4581H104.859V33.9942H100.701V41.8854H98.5994ZM111.23 32.4727V41.8853H113.332V32.4727H111.23ZM120.819 41.8854V33.7544L120.66 32.4741H123.081L126.681 38.8769L130.408 32.4741H132.558V41.8868H130.456V35.9161H130.281L129.659 37.309L127.653 40.9272H125.725L123.719 37.309L123.081 35.9161H122.922V41.8868H120.82L120.819 41.8854ZM139.885 32.4727V41.8853H148.582C149.283 41.8853 149.778 41.8668 150.064 41.8296C150.35 41.7912 150.493 41.7514 150.493 41.709L149.856 40.3479H141.987V37.8032H147.945V36.2181H141.987V34.0087H149.792V32.4727H139.885ZM63.7748 8.23253V10.5086V10.5099L60.74 11.7353L63.7748 12.9668V15.2454L57.8542 12.9069H57.842V10.5722H57.8542L63.7748 8.23253ZM98.2674 15.1244V12.8496L101.3 11.6254L98.2674 10.4012V8.12505L104.179 10.4623H104.194V12.7995H104.179L98.2674 15.1244ZM95.7286 4.90819L92.2515 16.7628H94.3162L97.7933 4.90819H95.7286ZM73.3352 10.3194C73.3718 9.39207 73.0628 8.48798 72.4751 7.80257H72.4763C72.1855 7.47881 71.8325 7.22469 71.4415 7.05731C71.0505 6.88993 70.6315 6.81418 70.21 6.83251C69.7579 6.81174 69.3071 6.88993 68.8844 7.06097C68.4616 7.23202 68.0756 7.49347 67.7518 7.82823V7.0793H65.6871V15.3689H67.7518V11.6975C67.7518 9.7928 68.3981 8.84106 69.6907 8.84106C69.907 8.83129 70.1232 8.87405 70.3224 8.96568C70.5203 9.05731 70.6974 9.19659 70.8392 9.3713C71.1409 9.77081 71.2949 10.2729 71.2704 10.7836V15.3689H73.3352V10.3194ZM75.9631 3.63154V15.4862H78.0278V3.63154H75.9631ZM87.9717 15.0513H89.6932L92.5899 6.74707H90.3835L88.7573 11.7294L87.0823 6.74707H85.472L83.797 11.7135L82.1709 6.74707H79.9644L82.8587 15.0513H84.5789L86.2833 10.168L87.9717 15.0513Z" fill="url(#paint0_linear_352_94)"/>
<defs>
<linearGradient id="paint0_linear_352_94" x1="37.8561" y1="-5.38078" x2="176.902" y2="79.1744" gradientUnits="userSpaceOnUse">
<stop offset="0.251308" stop-color="#996DFF"/>
<stop offset="0.623787" stop-color="#FF876E"/>
<stop offset="1" stop-color="#FFD072"/>
</linearGradient>
</defs>
</svg>
